<svg xmlns="http://www.w3.org/2000/svg" width="256" height="256" viewBox="0 0 256 256" fill="none"><defs><clipPath id="folder-open-clip"><path d="M8 96L24 208C25.3215 216.3912 32.4738 224 40.9442 224H215.056C223.526 224 230.678 216.3912 232 208L248 96H8Z" /></clipPath></defs><path d="M16 48C16 39.1634 23.1634 32 32 32H96L112 56H224C232.837 56 240 63.1634 240 72V96H16V48Z" fill="#f97316" /><path d="M8 96L24 208C25.3215 216.3912 32.4738 224 40.9442 224H215.056C223.526 224 230.678 216.3912 232 208L248 96H8Z" fill="#c2410c" fill-opacity="0.92" /><path d="M20 112H232" stroke="#ffedd5" stroke-width="10" stroke-linecap="round" stroke-opacity="0.2" /><path d="M26 192H226L218 220H36L26 192Z" fill="#7c2d12" fill-opacity="0.12" /><g clip-path="url(#folder-open-clip)" transform="translate(0 16)"><rect x="48" y="138" width="10" height="48" rx="4" fill="#7c2d12" opacity="0.29" stroke="none" />
  <rect x="72" y="138" width="10" height="48" rx="4" fill="#7c2d12" opacity="0.29" stroke="none" />
  <rect x="96" y="138" width="10" height="48" rx="4" fill="#7c2d12" opacity="0.29" stroke="none" />
  <rect x="64" y="102" width="4" height="84" rx="2" fill="#7c2d12" opacity="0.13" stroke="none" />
  <rect x="98" y="102" width="4" height="84" rx="2" fill="#7c2d12" opacity="0.13" stroke="none" />
  <rect x="132" y="102" width="4" height="84" rx="2" fill="#7c2d12" opacity="0.13" stroke="none" />
  <rect x="166" y="102" width="4" height="84" rx="2" fill="#7c2d12" opacity="0.13" stroke="none" />
  <rect x="200" y="102" width="4" height="84" rx="2" fill="#7c2d12" opacity="0.13" stroke="none" />
  <rect x="46" y="114" width="168" height="4" rx="2" fill="#7c2d12" opacity="0.13" stroke="none" />
  <rect x="46" y="138" width="168" height="4" rx="2" fill="#7c2d12" opacity="0.13" stroke="none" />
  <rect x="46" y="162" width="168" height="4" rx="2" fill="#7c2d12" opacity="0.13" stroke="none" />
  <rect x="40" y="114" width="176" height="70" rx="18" fill="#ffedd5" opacity="0.05" stroke="none" />
  <rect x="132" y="122" width="56" height="54" rx="10" fill="#ffffff" stroke="#7c2d12" stroke-width="6" stroke-linecap="round" stroke-linejoin="round" stroke-miterlimit="4.0" />
  <line x1="144" y1="138" x2="176" y2="138" fill="none" stroke="#f97316" stroke-width="5" stroke-linecap="round" stroke-linejoin="round" stroke-miterlimit="4.0" />
  <line x1="144" y1="150" x2="176" y2="150" fill="none" stroke="#f97316" stroke-width="5" stroke-linecap="round" stroke-linejoin="round" stroke-miterlimit="4.0" />
  <line x1="144" y1="162" x2="168" y2="162" fill="none" stroke="#f97316" stroke-width="5" stroke-linecap="round" stroke-linejoin="round" stroke-miterlimit="4.0" />
</g><path d="M16 48C16 39.1634 23.1634 32 32 32H96L112 56H224C232.837 56 240 63.1634 240 72V96M8 96L24 208C25.3215 216.3912 32.4738 224 40.9442 224H215.056C223.526 224 230.678 216.3912 232 208L248 96H8Z" stroke="#7c2d12" stroke-width="10" stroke-linecap="round" stroke-linejoin="round" stroke-opacity="0.34" fill="none" /></svg>