<svg width="256" height="256" viewBox="0 0 256 256" fill="none" xmlns="http://www.w3.org/2000/svg">
  <rect x="26" y="64" width="204" height="138" rx="28" fill="#6d28d9" stroke="none" />
  <rect x="42" y="48" width="74" height="34" rx="16" fill="#8b5cf6" stroke="none" />
  <rect x="20" y="78" width="216" height="132" rx="30" fill="#8b5cf6" stroke="none" />
  <rect x="30" y="90" width="196" height="100" rx="24" fill="#ede9fe" opacity="0.14" stroke="none" />
  <rect x="20" y="166" width="216" height="12" rx="6" fill="#3b0764" opacity="0.1" stroke="none" />
  <rect x="34" y="106" width="188" height="10" rx="5" fill="#ede9fe" opacity="0.12" stroke="none" />
  <rect x="134" y="54" width="72" height="8" rx="4" fill="#ede9fe" opacity="0.14" stroke="none" />
  <rect x="48" y="138" width="10" height="48" rx="4" fill="#3b0764" opacity="0.22" stroke="none" />
  <rect x="72" y="138" width="10" height="48" rx="4" fill="#3b0764" opacity="0.22" stroke="none" />
  <rect x="96" y="138" width="10" height="48" rx="4" fill="#3b0764" opacity="0.22" stroke="none" />
  <rect x="120" y="138" width="10" height="48" rx="4" fill="#3b0764" opacity="0.22" stroke="none" />
  <rect x="144" y="138" width="10" height="48" rx="4" fill="#3b0764" opacity="0.22" stroke="none" />
  <path d="M 44 152 Q 62 138 80 152 T 116 152 T 152 152 T 188 152 T 224 152" fill="none" opacity="0.16999999999999998" stroke="#3b0764" stroke-width="5" stroke-linecap="round" stroke-linejoin="round" stroke-miterlimit="4" />
  <path d="M 44 170 Q 62 156 80 170 T 116 170 T 152 170 T 188 170 T 224 170" fill="none" opacity="0.15" stroke="#3b0764" stroke-width="5" stroke-linecap="round" stroke-linejoin="round" stroke-miterlimit="4" />
  <rect x="40" y="114" width="176" height="70" rx="18" fill="#ede9fe" opacity="0.05" stroke="none" />
  <polygon points="160,120 166,140 186,146 166,152 160,172 154,152 134,146 154,140" fill="#ffffff" stroke="#3b0764" stroke-width="6" stroke-linecap="round" stroke-linejoin="round" stroke-miterlimit="4" />
</svg>
