<svg width="32" height="32" viewBox="0 0 32 32" fill="none" xmlns="http://www.w3.org/2000/svg">
  <rect x="0" y="0" width="32" height="32" fill="#0D0D0D" stroke="none" stroke-width="2"/>
  <path d="M 2 10 L 2 26 Q 2 28 4 28 L 28 28 Q 30 28 30 26 L 30 12 Q 30 10 28 10 L 16 10 L 14 8 L 4 8 Q 2 8 2 10 Z" fill="#001A00" stroke="none" stroke-width="2" stroke-linecap="round" stroke-linejoin="round"/>
  <line x1="2" y1="10" x2="30" y2="10" stroke="#F0F0F0" stroke-width="1" stroke-linecap="round"/>
  <line x1="10" y1="16" x2="10" y2="26" stroke="#F0F0F0" stroke-width="1" stroke-linecap="butt"/>
  <line x1="18" y1="16" x2="18" y2="26" stroke="#F0F0F0" stroke-width="1" stroke-linecap="butt"/>
  <line x1="26" y1="16" x2="26" y2="26" stroke="#F0F0F0" stroke-width="1" stroke-linecap="butt"/>
  <line x1="2" y1="20" x2="30" y2="20" stroke="#F0F0F0" stroke-width="1" stroke-linecap="butt"/>
  <path d="M 8 17 L 12 20 L 8 23" fill="none" stroke="#39FF14" stroke-width="2" stroke-linecap="round" stroke-linejoin="round"/>
  <line x1="14" y1="23" x2="22" y2="23" stroke="#39FF14" stroke-width="2" stroke-linecap="round"/>
</svg>
